<?xml version="1.0" encoding="iso-8859-1"?>
<!-- Generator: Adobe Illustrator 19.1.0, SVG Export Plug-In . SVG Version: 6.00 Build 0)  -->
<svg version="1.1" id="Layer_1" xmlns="http://www.w3.org/2000/svg" xmlns:xlink="http://www.w3.org/1999/xlink" x="0px" y="0px"
	 viewBox="0 0 300 300" style="enable-background:new 0 0 300 300;" xml:space="preserve">
<g id="XMLID_246_">
	<path id="XMLID_250_" style="fill:#007FA3;" d="M226.272,19.837c63.273,36.048,78,116.885,33.978,198.668
		C221.558,290.398,137.075,321.102,74.126,284.5C11.162,247.892-1.125,145.772,25.932,87.005
		C65.22,1.673,156.364-20.002,226.272,19.837"/>
	<path id="XMLID_247_" style="fill:#FFFFFF;" d="M224.804,81.86c12.385,13.224,16.242,33.29,14.088,49.746
		c-2.461,18.767-13.834,36.131-32.753,47.644c-15.004,9.13-34.714,12.774-54.109,12.947c-0.155,3.074-0.769,13.667-1.078,15.343
		c-0.456,2.471-1.321,3.804-2.38,5.187c-2.082,2.713-5.696,4.468-9.284,5.49c-2.853,0.811-5.674,1.16-7.674,1.16
		c-0.339,0-0.669-0.019-0.993-0.06c-2.11-0.239-4.45-1.229-5.899-2.845c-1.445-1.616-2.265-3.658-2.457-5.974l-0.161-2.091
		c-0.412-1.801-2.658-92.987-2.222-91.365c0.325-10.925,17.965-12.831,27.536-10.902c9.59,1.933,7.163,13.586,6.904,27.911
		c0,0-0.456,18.838-1.34,38.743c12.21-0.478,21.911-3.958,30.99-8.469c18.336-9.089,28.042-23.03,28.042-43.566
		c0-20.536-19.992-43.532-56.87-43.532c-36.878,0-52.708,9.302-70.565,24.075c-4.025,3.33-7.126,6.687-10.058,8.896
		c-2.932,2.209-10.72,2.548-12.807-2.623c-2.516-6.234,2.185-13.182,4.947-16.545c4.336-5.279,15.034-15.91,26.89-22.088
		c13.579-7.089,30.192-14.722,53.32-15.306c20.924-0.528,53.961,1.166,77.759,28.045 M144.818,232.841
		c-1.928-1.502-4.092-2.532-6.272-2.97c-0.743-0.143-1.505-0.225-2.257-0.225c-4.116,0-8.15,2.265-10.789,6.071
		c-2.206,3.158-3.107,6.934-2.522,10.601c0.371,2.332,1.246,4.359,2.537,5.87c1.45,1.708,3.669,3.013,6.417,3.797
		c1.591,0.441,3.223,0.675,4.852,0.675h0.003c3.551,0,6.746-1.064,9.228-3.079c2.887-2.35,4.458-5.703,4.423-9.436
		C150.407,239.787,148.305,235.555,144.818,232.841"/>
</g>
</svg>
