<?xml version="1.0" encoding="UTF-8" standalone="no"?>
<svg width="116px" height="35px" viewBox="0 0 116 35" version="1.1" xmlns="http://www.w3.org/2000/svg" xmlns:xlink="http://www.w3.org/1999/xlink">
    <!-- Generator: sketchtool 39.1 (31720) - http://www.bohemiancoding.com/sketch -->
    <title>BCE75D85-B92D-4D5D-9CA5-F72B717FB744</title>
    <desc>Created with sketchtool.</desc>
    <defs></defs>
    <g id="ReadingPage" stroke="none" stroke-width="1" fill="none" fill-rule="evenodd">
        <g id="Book_Shelf" transform="translate(-90.000000, -40.000000)">
            <g id="ico_PearsonLogo_Horizontal_Blk_RGB" transform="translate(90.000000, 40.000000)">
                <path d="M68.7525935,22.9382477 C68.4778271,23.3193224 67.5810748,24.4571495 66.4654907,24.4571495 C64.9568925,24.4571495 64.640257,23.3981542 64.640257,22.5100701 C64.640257,21.0493925 65.7584579,20.3739252 68.7525935,19.6345093 L68.7525935,22.9382477 L68.7525935,22.9382477 Z M72.4800935,24.7273364 C72.4365888,24.6139953 72.3188318,24.5495561 72.2030374,24.5768692 L72.1664019,24.5861916 C71.8224533,24.660771 71.5578271,24.6398364 71.3723598,24.5147196 C71.1095327,24.3364486 70.981472,23.9350935 70.981472,23.287757 L70.981472,17.4322897 C70.981472,15.1451869 69.6176168,13.9856075 66.9273598,13.9856075 C64.517757,13.9856075 62.6302103,15.1260514 62.6302103,16.581986 C62.6302103,17.3305607 63.0861916,17.8715888 63.7598598,17.9528738 C64.1999766,18.0058645 64.6196495,17.8066589 64.9246729,17.4849533 C65.5170561,16.8596963 65.4401869,16.1165187 64.7220327,15.3182243 C65.1467757,14.8736916 65.8991121,14.6107009 66.7572664,14.6107009 C68.1557944,14.6107009 68.7525935,15.4400701 68.7525935,17.3838785 L68.7525935,18.863528 C68.4246729,18.9649299 68.1178505,19.0609346 67.5567056,19.1925935 C66.4244393,19.4583645 64.871028,19.8121262 63.6993458,20.4596262 C62.7321028,20.9896963 62.2416121,21.8267523 62.2416121,22.9477336 C62.2416121,24.1676636 63.0423598,25.5923598 65.2993692,25.5923598 C66.5631308,25.5923598 67.6957243,24.9926168 68.8579206,23.7069393 C68.958014,25.0433178 69.4645327,25.5439486 70.6931308,25.5439486 C71.283715,25.5439486 71.7563785,25.4062383 72.3181776,25.1344159 C72.4704439,25.0608178 72.5428972,24.8841822 72.4800935,24.7273364 L72.4800935,24.7273364 Z" id="Fill-1" fill="#2C2C28"></path>
                <path d="M97.5531776,14.537757 C96.1713318,14.537757 94.5855374,15.1319393 94.5855374,19.7648598 C94.5855374,23.2983879 95.6276869,25.0158411 97.7716822,25.0158411 C99.8237617,25.0158411 100.738832,23.3963551 100.738832,19.7648598 C100.738832,16.2473598 99.6968458,14.537757 97.5531776,14.537757 L97.5531776,14.537757 Z M97.6742056,25.6412617 C94.4766121,25.6412617 92.0652103,23.1358178 92.0652103,19.813271 C92.0652103,16.5595794 94.5816121,13.9126636 97.6742056,13.9126636 C100.806051,13.9126636 103.259322,16.4616121 103.259322,19.7161215 C103.259322,23.3757477 100.360374,25.6412617 97.6742056,25.6412617 L97.6742056,25.6412617 Z" id="Fill-2" fill="#2C2C28"></path>
                <path d="M42.3810748,23.287757 L42.3810748,19.0517757 L44.0118458,19.0517757 C46.4453271,19.0517757 48.2965654,18.5367523 49.5145327,17.520771 C50.7872897,16.4588318 51.0543692,15.1132944 51.0543692,14.171729 C51.0543692,10.2985047 47.3172196,9.48565421 44.1819393,9.48565421 L44.1946963,9.4853271 L37.8354907,9.4853271 C37.6915654,9.4853271 37.5744626,9.60242991 37.5744626,9.74635514 L37.5744626,9.76369159 L37.5742991,9.75813084 C37.5742991,9.89109813 37.6554206,10.0095093 37.7802103,10.0553037 C38.3465888,10.2635047 39.8851168,9.97042056 39.8851168,11.6204907 L39.8852804,23.2854673 C39.8852804,24.133972 39.5089486,24.7325701 37.7888785,24.8949766 C37.6526402,24.9080607 37.5496028,25.0197664 37.5496028,25.1546963 L37.5496028,25.1947664 C37.5496028,25.3386916 37.6667056,25.4557944 37.8106308,25.4557944 L44.6045561,25.4557944 C44.7483178,25.4557944 44.8655841,25.3386916 44.8655841,25.1947664 L44.8655841,25.1591121 C44.8655841,25.0241822 44.7586215,24.9100234 44.6223832,24.8993925 C42.7538084,24.7499065 42.3786215,24.1709346 42.3786215,23.2854673 L42.3786215,19.0591355 M48.2425935,14.1229907 C48.2425935,16.8179907 47.5784112,18.3027103 44.1819393,18.3027103 L42.3810748,18.3027103 L42.3810748,10.159486 L44.2550467,10.159486 C47.768785,10.159486 48.2425935,12.1629907 48.2425935,14.1229907" id="Fill-3" fill="#2C2C28"></path>
                <path d="M53.3435981,18.3110514 C53.5913785,15.8829673 54.5389953,14.551986 56.0271495,14.551986 C56.7721262,14.551986 57.3241121,14.7580607 57.7145093,15.1823131 C58.2509579,15.7650467 58.4776402,16.8175 58.3885047,18.3110514 L53.3435981,18.3110514 L53.3435981,18.3110514 Z M56.1967523,13.9069393 C53.2394159,13.9069393 50.8335748,16.5846028 50.8335748,19.8759112 C50.8335748,23.2077804 53.0892757,25.626215 56.1967523,25.626215 C58.8081776,25.626215 60.0786449,24.0660981 60.8071028,22.8924533 C60.8789019,22.7771495 60.8475,22.6240654 60.7357944,22.5440888 L60.7014486,22.5197196 C60.5887617,22.4394159 60.4319159,22.4618224 60.3450701,22.5714019 C59.3846963,23.7751402 58.5445327,24.4720327 57.0931776,24.4720327 C55.2574766,24.4720327 53.2963318,23.2072897 53.2963318,19.6577336 L53.2963318,19.6314019 C53.2932243,19.4745561 53.296986,19.2596495 53.3027103,19.0591355 L60.8129907,19.0591355 C60.8335981,19.0591355 60.8504439,19.0431075 60.8519159,19.0228271 L60.8561682,18.9624766 C60.9621495,17.5063785 60.5503271,16.1989486 59.6967523,15.2804439 C58.8613318,14.3818925 57.6508879,13.9069393 56.1967523,13.9069393 L56.1967523,13.9069393 Z" id="Fill-4" fill="#2C2C28"></path>
                <path d="M87.3259813,18.4423832 C87.3253271,18.4420561 87.3245093,18.4420561 87.3236916,18.4418925 C85.2698131,17.8658645 84.4695561,17.2826402 84.4695561,16.3621729 C84.4695561,15.3131542 85.3021963,14.551986 86.4491822,14.551986 C87.7986449,14.551986 88.376472,15.1968692 89.8008411,17.5783411 L89.8198131,17.6100701 C89.8266822,17.6220093 89.8396028,17.6295327 89.8533411,17.6295327 L90.048785,17.6295327 C90.1925467,17.6295327 90.3098131,17.5122664 90.3098131,17.3685047 L90.3098131,13.9461916 C90.3098131,13.9244393 90.2921495,13.9069393 90.2705607,13.9069393 L90.0128037,13.9069393 C89.9342991,13.9069393 89.8607009,13.9417757 89.8111449,14.0024533 L89.356472,14.5557477 C88.7824065,14.2392757 87.8478738,13.9069393 86.9099065,13.9069393 C84.5511682,13.9069393 82.9035514,15.3648364 82.9035514,17.4524065 C82.9035514,19.4115888 84.2026402,20.1459346 86.4459112,20.751729 C88.6255607,21.3483645 89.398014,21.9690421 89.398014,23.1227336 C89.398014,24.404486 88.155514,24.9811682 87.2733178,24.9811682 C85.6324065,24.9811682 84.9384579,24.3711215 83.3659112,21.5456075 L83.3472664,21.5119159 C83.3403972,21.499486 83.3273131,21.4916355 83.3130841,21.4916355 L83.1163318,21.4916355 C82.9724065,21.4916355 82.8553037,21.6087383 82.8553037,21.7526636 L82.8553037,25.5869626 C82.8553037,25.6085514 82.8728037,25.626215 82.8943925,25.626215 L83.1613084,25.626215 C83.2301636,25.626215 83.2973832,25.5980841 83.3459579,25.5498364 L84.0649299,24.8305374 C84.9065654,25.3529206 86.1649299,25.626215 86.9825234,25.626215 C88.209486,25.626215 89.218271,25.2376168 89.8999533,24.5021262 C90.5077103,23.8467757 90.8425,22.9179673 90.8425,21.8867757 C90.8425,20.1011215 89.8893224,19.1674065 87.3259813,18.4423832" id="Fill-5" fill="#2C2C28"></path>
                <path d="M74.8977103,24.0791822 C74.8977103,24.6704206 74.7474065,24.8639019 73.8066589,24.923271 C73.6700935,24.9319393 73.5629673,25.0459346 73.5629673,25.1833178 C73.5629673,25.3269159 73.679743,25.4438551 73.8235047,25.4438551 L78.4713084,25.4438551 C78.6126168,25.4438551 78.727757,25.328715 78.727757,25.1875701 C78.727757,25.0482243 78.6191589,24.9339019 78.4804673,24.9270327 C77.4046262,24.8753505 77.1262617,24.7011682 77.1262617,24.0790187 L77.1262617,17.2638318 C77.891028,15.991729 78.441215,15.3259112 79.3692056,15.1245794 C79.324229,15.2853505 79.2947897,15.4781776 79.2947897,15.6345327 C79.2947897,16.4624299 79.873271,17.0404206 80.7011682,17.0404206 C81.5145093,17.0404206 82.0826869,16.4624299 82.0826869,15.6345327 C82.0826869,14.851285 81.5936682,13.9368692 80.215257,13.9368692 C79.0851168,13.9368692 78.0050234,14.5846963 77.0778505,16.1348364 L77.0778505,14.381729 C77.0778505,14.2031308 76.9304907,14.0595327 76.7518925,14.0641121 L73.8233411,14.1422897 C73.6815421,14.1463785 73.5704907,14.2603738 73.5704907,14.4021729 L73.5704907,14.4401168 C73.5704907,14.5685047 73.6640421,14.6787383 73.7876869,14.6960748 C74.7639252,14.8346028 74.898528,15.2990888 74.8978738,15.7800935 L74.8977103,24.0791822" id="Fill-6" fill="#2C2C28"></path>
                <path d="M107.041121,14.0564252 C107.108832,14.0564252 107.172944,14.0824299 107.221846,14.1296963 C107.272874,14.1789252 107.301168,14.2451636 107.301659,14.3158178 L107.312126,16.2599533 C107.312126,16.2599533 108.265794,13.9797196 111.361659,13.9797196 L111.388808,13.9797196 C113.318551,13.9797196 114.425304,15.2102804 114.425304,17.3554206 L114.425304,24.0678972 C114.425304,24.6594626 114.575607,24.8529439 115.516028,24.911986 C115.652757,24.9204907 115.760047,25.034486 115.760047,25.1720327 C115.760047,25.3154673 115.643107,25.4324065 115.499509,25.4324065 L111.324206,25.4324065 C111.18028,25.4324065 111.063178,25.3151402 111.063178,25.1713785 C111.063178,25.0320327 111.16785,24.9182009 111.301308,24.9067523 C112.059696,24.841986 112.180888,24.6503037 112.180888,24.0678972 L112.180888,18.0099533 C112.180888,16.0097196 111.61222,15.2307243 110.152687,15.2307243 C109.166636,15.2307243 108.358692,16.0918224 107.85479,16.8140654 C107.85479,16.8140654 107.597523,17.1369159 107.318341,17.7438551 L107.349252,24.0675701 C107.349252,24.6489953 107.467173,24.840514 108.204136,24.9059346 C108.337103,24.9177103 108.441449,25.0315421 108.441449,25.1651636 C108.441449,25.3151402 108.324346,25.4324065 108.180748,25.4324065 L104.031121,25.4324065 C103.887523,25.4324065 103.770584,25.3154673 103.770584,25.1718692 C103.770584,25.034486 103.87771,24.9204907 104.014276,24.9118224 C104.955023,24.8524533 105.105327,24.658972 105.105327,24.0678972 L105.105327,15.781729 C105.105327,15.2981075 104.97007,14.8311682 103.988762,14.691986 C103.864626,14.6743224 103.770584,14.5637617 103.770584,14.4347196 L103.770584,14.3964486 C103.770584,14.2541589 103.882453,14.1395093 104.024743,14.1354206 L107.041121,14.0564252" id="Fill-7" fill="#2C2C28"></path>
                <path d="M24.9635047,2.3911215 C32.3229907,6.58392523 34.036028,15.9864953 28.9155607,25.4988084 C24.4152804,33.8608645 14.588785,37.4321729 7.26691589,33.1749299 C-0.056588785,28.9170327 -1.48570093,17.0391121 1.66135514,10.2036449 C6.23098131,0.278364486 16.8322196,-2.24278037 24.9635047,2.3911215" id="Fill-8" fill="#007E98"></path>
                <path d="M16.2358286,27.3533715 C15.9464321,27.0907218 15.6211251,26.9104576 15.2937056,26.8339744 C15.1821718,26.8088899 15.0676806,26.7946262 14.9546681,26.7946262 C14.3363735,26.7946262 13.7303307,27.190814 13.3338363,27.8562915 C13.0026146,28.4088886 12.8672108,29.0692017 12.955086,29.7103324 C13.0106417,30.1180788 13.1422431,30.472705 13.3361599,30.7370761 C13.5539467,31.035877 13.8872808,31.2640969 14.3002517,31.4010781 C14.5391623,31.478299 14.78441,31.5191228 15.029024,31.5191228 L15.0296577,31.5191228 C15.5630345,31.5191228 16.042968,31.3329564 16.4158037,30.9805435 C16.849476,30.5696001 17.0856405,29.983065 17.0803595,29.3301298 C17.075501,28.5682491 16.7596997,27.8282558 16.2358286,27.3533715 M24.792757,9.60521028 C26.2333178,11.1432477 26.6819393,13.4772897 26.4313785,15.3913318 C26.1451636,17.5740888 24.8223598,19.593785 22.6217757,20.9329439 C20.8765187,21.9948832 18.5840187,22.4186449 16.3281542,22.4387617 C16.3101636,22.7964486 16.2386916,24.0284813 16.2027103,24.2234346 C16.1497196,24.5107944 16.0491355,24.6658411 15.9259813,24.8267757 C15.6837617,25.1424299 15.2634346,25.3463785 14.8460514,25.4652804 C14.5142056,25.5596495 14.1861215,25.6002103 13.9533879,25.6002103 C13.913972,25.6002103 13.8755374,25.5980841 13.8379206,25.5933411 C13.5925935,25.5655374 13.3202804,25.4502336 13.1518224,25.2623131 C12.9836916,25.0743925 12.8883411,24.8367523 12.8660981,24.5675467 L12.8472897,24.3243458 C12.7995327,24.1148364 12.5381776,13.5086916 12.5888785,13.6974299 C12.6266589,12.4266355 14.6784112,12.2048598 15.7917056,12.4292523 C16.9072897,12.6541355 16.6248364,14.0096495 16.594743,15.6757477 C16.594743,15.6757477 16.5417523,17.8668458 16.4388785,20.1820794 C17.8589953,20.126472 18.9873364,19.7216822 20.0433879,19.1970093 C22.1760981,18.1398131 23.3049299,16.5182009 23.3049299,14.1296963 C23.3049299,11.7411916 20.9795561,9.06630841 16.6900935,9.06630841 C12.4007944,9.06630841 10.5595327,10.1482009 8.48259346,11.8666355 C8.01434579,12.2539252 7.65371495,12.6443224 7.31254673,12.9012617 C6.97154206,13.1583645 6.06579439,13.1976168 5.82292056,12.5962383 C5.5303271,11.871215 6.07707944,11.0629439 6.39829439,10.6718925 C6.90268692,10.0579206 8.14698598,8.82130841 9.52588785,8.1028271 C11.1053037,7.27836449 13.0376636,6.39044393 15.727757,6.32257009 C18.1615654,6.26107477 22.0042056,6.45815421 24.7721495,9.5846028" id="Fill-9" fill="#FFFFFF"></path>
            </g>
        </g>
    </g>
</svg>