<?xml version="1.0" encoding="UTF-8" standalone="no"?>
<svg width="59px" height="64px" viewBox="0 0 59 64" version="1.1" xmlns="http://www.w3.org/2000/svg" xmlns:xlink="http://www.w3.org/1999/xlink">
    <!-- Generator: sketchtool 39.1 (31720) - http://www.bohemiancoding.com/sketch -->
    <title>A9672F98-29CA-4CA3-99F9-E0A952D0B7EE</title>
    <desc>Created with sketchtool.</desc>
    <defs></defs>
    <g id="ReadingPage" stroke="none" stroke-width="1" fill="none" fill-rule="evenodd">
        <g id="Book_Shelf" transform="translate(-956.000000, -309.000000)" fill="#B7BBBF">
            <g id="BOOKCARD_1" transform="translate(875.000000, 221.000000)">
                <g id="ic_book_placeholder" transform="translate(81.000000, 88.000000)">
                    <path d="M0.6667,4.45106087 C0.2537,4.70427826 0.000842857143,5.15227826 0.000842857143,5.63366957 L0.000842857143,48.7641043 C0.000842857143,49.2928 0.301461905,49.7741913 0.776271429,50.010713 L28.0904619,63.5369739 L28.0904619,17.2955826 L2.03212857,4.38984348 C1.59665238,4.17558261 1.0797,4.19784348 0.6667,4.45106087" id="Fill-1"></path>
                    <path d="M58.3237476,4.45106087 C57.9079381,4.19784348 57.3909857,4.17558261 56.958319,4.38984348 L30.8999857,17.2955826 L30.8999857,63.5369739 L58.2141762,50.010713 C58.6889857,49.7741913 58.9896048,49.2928 58.9896048,48.7641043 L58.9896048,5.63366957 C58.9896048,5.15227826 58.7367476,4.70427826 58.3237476,4.45106087" id="Fill-3"></path>
                    <path d="M53.2258667,0.764104348 C52.8746762,0.0795826087 52.0290095,-0.198678261 51.3378667,0.151930435 L29.4966286,11.098713 L7.65258095,0.151930435 C6.9614381,-0.195895652 6.11858095,0.0795826087 5.76739048,0.764104348 C5.4162,1.4514087 5.69434286,2.2861913 6.38548571,2.63401739 L28.8616762,13.8980174 C29.0611524,13.9981913 29.2774857,14.0482783 29.4966286,14.0482783 C29.7129619,14.0482783 29.9321048,13.9981913 30.1287714,13.8980174 L52.6049619,2.63401739 C53.2989143,2.2861913 53.5770571,1.4514087 53.2258667,0.764104348" id="Fill-5"></path>
                </g>
            </g>
        </g>
    </g>
</svg>