<?xml version="1.0" encoding="UTF-8" standalone="no"?>
<svg width="18px" height="18px" viewBox="0 0 18 18" version="1.1" xmlns="http://www.w3.org/2000/svg" xmlns:xlink="http://www.w3.org/1999/xlink">
    <!-- Generator: sketchtool 39.1 (31720) - http://www.bohemiancoding.com/sketch -->
    <title>8FC94995-FBBE-4A15-A004-485FE223BA7D</title>
    <desc>Created with sketchtool.</desc>
    <defs></defs>
    <g id="ReadingPage" stroke="none" stroke-width="1" fill="none" fill-rule="evenodd">
        <g id="Book_Shelf" transform="translate(-817.000000, -465.000000)" fill="#B7BBBF">
            <g id="BOOKCARD_1" transform="translate(635.000000, 221.000000)">
                <path d="M192.984304,258.45713 L189.015304,258.45713 C188.559435,258.45713 188.188478,258.086565 188.188478,257.630696 C188.188478,257.174826 188.559435,256.803478 189.015304,256.803478 L190.172783,256.803478 L190.172783,252.503826 L189.677,252.503826 C189.22113,252.503826 188.850174,252.133261 188.850174,251.677391 C188.850174,251.221522 189.22113,250.850565 189.677,250.850565 L191,250.850565 C191.45587,250.850565 191.826826,251.221522 191.826826,251.677391 L191.826826,256.803478 L192.984304,256.803478 C193.440565,256.803478 193.811522,257.174826 193.811522,257.630696 C193.811522,258.086565 193.440565,258.45713 192.984304,258.45713 M190.668957,247.54287 C191.307565,247.54287 191.826826,248.062522 191.826826,248.700348 C191.826826,249.338565 191.307565,249.857826 190.668957,249.857826 C190.030739,249.857826 189.511478,249.338565 189.511478,248.700348 C189.511478,248.062522 190.030739,247.54287 190.668957,247.54287 M191,244 C186.037478,244 182,248.037478 182,253 C182,257.962913 186.037478,262 191,262 C195.962522,262 200,257.962913 200,253 C200,248.037478 195.962522,244 191,244" id="ic_info"></path>
            </g>
        </g>
    </g>
</svg>