<?xml version="1.0" encoding="UTF-8" standalone="no"?>
<svg width="18px" height="19px" viewBox="0 0 18 19" version="1.1" xmlns="http://www.w3.org/2000/svg" xmlns:xlink="http://www.w3.org/1999/xlink">
    <!-- Generator: sketchtool 39.1 (31720) - http://www.bohemiancoding.com/sketch -->
    <title>A3B3121D-3AA9-474A-968B-759717DC7996</title>
    <desc>Created with sketchtool.</desc>
    <defs></defs>
    <g id="ReadingPage" stroke="none" stroke-width="1" fill="none" fill-rule="evenodd">
        <g id="Book_Shelf_moreinfo" transform="translate(-958.000000, -233.000000)" fill="#8D8D8D">
            <g id="modal">
                <g id="box" transform="translate(255.000000, 219.000000)">
                    <path d="M712.993036,23.3253012 L720.736289,15.2808193 C721.026024,14.9878313 721.026024,14.5128916 720.735855,14.2199036 C720.445687,13.9266988 719.975518,13.9266988 719.685349,14.2199036 L711.976795,22.005012 L704.268458,14.2199036 C703.978072,13.9266988 703.50812,13.9266988 703.217735,14.2199036 C702.927566,14.5128916 702.927566,14.9878313 703.217518,15.2808193 L710.960554,23.3253012 L703.217735,31.3697831 C702.927566,31.6627711 702.927566,32.1377108 703.217735,32.4306988 C703.507687,32.7234699 703.978072,32.7239036 704.268458,32.4306988 L711.976795,24.6455904 L719.685349,32.4306988 C719.975518,32.7239036 720.44612,32.7234699 720.735855,32.4306988 C721.026024,32.1377108 721.026024,31.6627711 720.735855,31.3697831 L712.993036,23.3253012 Z" id="ic_cancel"></path>
                </g>
            </g>
        </g>
    </g>
</svg>